<svg id="svg" xmlns="http://www.w3.org/2000/svg" xmlns:xlink="http://www.w3.org/1999/xlink" width="400"
     height="381.74603174603175" viewBox="0, 0, 400,381.74603174603175">
    <g id="9erSystemsLogo-black">
        <path id="path0"
              d="M88.827 15.517 C 60.330 20.678,34.805 39.323,22.308 64.109 C 9.277 89.954,9.306 129.129,22.373 153.989 C 43.857 194.859,105.404 208.219,156.349 183.072 C 161.806 180.378,166.592 178.037,166.986 177.870 C 167.986 177.444,166.912 187.011,164.991 195.635 C 158.310 225.628,142.002 247.877,118.690 258.801 C 98.607 268.213,69.078 269.494,48.164 261.861 C 38.011 258.156,38.889 256.690,38.889 277.359 L 38.889 295.194 43.056 296.393 C 52.855 299.213,78.749 300.225,93.672 298.371 C 166.981 289.262,206.520 233.658,206.512 139.683 C 206.507 79.438,189.301 41.961,153.351 23.888 C 136.546 15.440,108.993 11.865,88.827 15.517 M122.450 46.782 C 154.854 55.070,172.158 90.477,168.688 141.392 L 168.115 149.792 160.447 153.429 C 122.739 171.313,78.615 167.530,61.170 144.917 C 48.288 128.220,46.883 94.519,58.156 72.620 C 69.246 51.077,96.468 40.137,122.450 46.782 M240.476 194.113 C 214.471 200.974,200.024 230.178,206.746 262.302 C 213.678 295.433,249.229 308.370,290.700 292.854 L 295.238 291.156 295.238 281.689 C 295.238 270.864,295.646 271.212,287.868 275.407 C 255.326 292.960,223.222 280.282,223.030 249.802 L 223.016 247.619 259.921 247.619 L 296.825 247.619 296.825 238.222 C 296.825 214.178,286.854 199.029,267.753 194.054 C 261.844 192.515,246.408 192.548,240.476 194.113 M321.429 246.429 L 321.429 296.825 330.556 296.825 L 339.683 296.825 339.683 261.147 L 339.683 225.470 343.452 222.590 C 345.526 221.007,349.901 218.401,353.175 216.800 L 359.127 213.889 372.024 213.907 L 384.921 213.926 384.921 205.460 C 384.921 195.418,385.632 196.028,373.943 196.040 C 362.209 196.052,355.602 198.318,344.643 206.087 L 339.683 209.604 339.683 202.818 L 339.683 196.032 330.556 196.032 L 321.429 196.032 321.429 246.429 M267.432 209.942 C 274.621 213.853,278.263 220.124,279.748 231.151 L 280.256 234.921 251.636 234.921 C 235.895 234.921,223.020 234.653,223.025 234.325 C 223.139 227.153,230.353 215.160,237.040 211.027 C 244.726 206.278,259.712 205.742,267.432 209.942 M172.222 300.397 L 172.222 307.143 169.841 307.143 C 167.593 307.143,167.460 307.319,167.460 310.317 C 167.460 313.290,167.606 313.492,169.758 313.492 L 172.057 313.492 172.338 329.167 C 172.722 350.577,174.765 353.980,187.221 353.957 C 196.228 353.941,196.825 353.665,196.825 349.523 L 196.825 346.056 192.140 346.546 C 181.702 347.637,180.952 346.356,180.952 327.420 L 180.952 313.492 188.889 313.492 L 196.825 313.492 196.825 310.317 L 196.825 307.143 188.889 307.143 L 180.952 307.143 180.952 300.397 L 180.952 293.651 176.587 293.651 L 172.222 293.651 172.222 300.397 M41.790 306.713 C 35.882 308.820,32.357 313.726,32.357 319.841 C 32.357 327.560,36.082 330.857,47.655 333.383 C 58.116 335.666,59.490 336.543,59.512 340.948 C 59.544 347.392,48.498 349.070,38.517 344.138 C 31.256 340.549,31.746 340.414,31.746 346.000 L 31.746 350.730 36.988 352.349 C 53.744 357.524,68.259 351.650,68.251 339.697 C 68.246 331.684,64.513 328.279,53.175 325.944 C 45.210 324.303,43.179 323.452,41.645 321.109 C 36.975 313.983,51.514 309.767,61.504 315.350 C 66.612 318.205,66.780 318.122,66.508 312.897 L 66.270 308.333 62.302 306.979 C 57.429 305.317,46.118 305.170,41.790 306.713 M135.441 306.713 C 129.533 308.820,126.007 313.726,126.007 319.841 C 126.007 327.560,129.733 330.857,141.306 333.383 C 151.766 335.666,153.141 336.543,153.162 340.948 C 153.194 347.392,142.149 349.070,132.168 344.138 C 124.906 340.549,125.397 340.414,125.397 346.000 L 125.397 350.730 130.639 352.349 C 147.395 357.524,161.910 351.650,161.902 339.697 C 161.896 331.684,158.164 328.279,146.825 325.944 C 138.861 324.303,136.830 323.452,135.295 321.109 C 130.626 313.983,145.165 309.767,155.155 315.350 C 160.262 318.205,160.431 318.122,160.159 312.897 L 159.921 308.333 155.952 306.979 C 151.080 305.317,139.769 305.170,135.441 306.713 M214.460 307.601 C 197.260 316.173,198.640 346.648,216.504 352.735 C 220.731 354.175,232.557 354.394,236.588 353.106 C 243.877 350.778,243.651 350.998,243.651 346.247 C 243.651 343.062,243.385 342.010,242.659 342.328 C 231.074 347.406,224.479 348.250,219.035 345.354 C 215.250 343.341,212.019 338.503,211.403 333.929 L 210.895 330.159 227.670 330.159 L 244.444 330.159 244.444 325.100 C 244.444 308.972,229.367 300.173,214.460 307.601 M270.238 307.272 C 268.492 308.178,266.438 309.468,265.675 310.138 C 264.395 311.262,264.286 311.192,264.286 309.250 C 264.286 307.225,264.116 307.143,259.921 307.143 L 255.556 307.143 255.556 330.159 L 255.556 353.175 259.921 353.175 L 264.286 353.175 264.286 335.730 L 264.286 318.286 268.452 315.897 C 271.442 314.182,273.666 313.505,276.324 313.500 C 284.577 313.483,284.921 314.386,284.921 336.072 L 284.921 353.175 289.286 353.175 L 293.651 353.175 293.651 335.730 L 293.651 318.286 297.817 315.897 C 300.958 314.095,302.989 313.505,306.063 313.500 C 314.130 313.485,314.993 315.865,315.045 338.294 L 315.079 353.175 319.048 353.175 L 323.016 353.175 323.016 334.692 C 323.016 313.854,322.383 311.092,316.748 307.348 C 311.298 303.726,300.447 305.250,294.098 310.530 L 291.767 312.468 289.837 310.174 C 285.688 305.243,276.712 303.915,270.238 307.272 M344.171 306.713 C 338.263 308.820,334.737 313.726,334.737 319.841 C 334.737 327.560,338.463 330.857,350.036 333.383 C 360.496 335.666,361.871 336.543,361.893 340.948 C 361.924 347.392,350.879 349.070,340.898 344.138 C 333.637 340.549,334.127 340.414,334.127 346.000 L 334.127 350.730 339.369 352.349 C 356.125 357.524,370.640 351.650,370.632 339.697 C 370.627 331.684,366.894 328.279,355.556 325.944 C 347.591 324.303,345.560 323.452,344.026 321.109 C 339.356 313.983,353.895 309.767,363.885 315.350 C 368.993 318.205,369.161 318.122,368.889 312.897 L 368.651 308.333 364.683 306.979 C 359.810 305.317,348.499 305.170,344.171 306.713 M73.810 307.621 C 73.810 307.884,77.738 317.459,82.540 328.898 C 92.777 353.287,92.208 349.513,87.302 360.473 C 85.119 365.348,83.333 369.451,83.333 369.589 C 83.333 369.728,85.399 369.841,87.924 369.841 L 92.515 369.841 105.583 339.173 C 112.770 322.306,118.776 308.180,118.929 307.782 C 119.084 307.382,117.148 307.166,114.591 307.299 L 109.974 307.540 103.433 323.016 C 99.835 331.528,96.770 338.809,96.623 339.197 C 96.476 339.584,93.336 332.536,89.646 323.533 L 82.937 307.164 78.373 307.153 C 75.863 307.148,73.810 307.358,73.810 307.621 M231.497 314.246 C 234.419 316.028,235.357 317.524,236.129 321.642 L 236.685 324.603 223.812 324.603 L 210.939 324.603 211.458 322.421 C 213.384 314.313,224.303 309.860,231.497 314.246 "
              stroke="none" fill="#000000" fill-rule="evenodd"></path>
    </g>
</svg>