<?xml version="1.0" encoding="utf-8"?>
<!-- Generator: Adobe Illustrator 16.0.4, SVG Export Plug-In . SVG Version: 6.00 Build 0)  -->
<!DOCTYPE svg PUBLIC "-//W3C//DTD SVG 1.1//EN" "http://www.w3.org/Graphics/SVG/1.1/DTD/svg11.dtd">
<svg version="1.1" id="Layer_1" xmlns="http://www.w3.org/2000/svg" xmlns:xlink="http://www.w3.org/1999/xlink" x="0px" y="0px"
	 width="432px" height="432px" viewBox="0 0 432 432" enable-background="new 0 0 432 432" xml:space="preserve">
<g>
	<g>
		<rect x="43.903" y="82.028" fill="#FFFFFF" width="350.444" height="184.694"/>
		<path d="M393.952,82.423v183.905H44.297V82.423H393.952 M394.741,81.634H43.508v185.483h351.233V81.634L394.741,81.634z"/>
	</g>
	<rect x="43.508" y="81.634" fill="#00468E" width="131.91" height="99.789"/>
	<g>
		<polygon fill="#FFFFFF" points="55.992,145.442 57.133,149.254 61.237,149.254 58.005,151.576 59.233,155.42 56.068,153.125 
			52.75,155.42 54.036,151.672 50.748,149.254 54.715,149.254 		"/>
	</g>
	<g>
		<polygon fill="#FFFFFF" points="55.992,164.301 57.133,168.111 61.237,168.111 58.005,170.433 59.233,174.276 56.068,171.981 
			52.75,174.276 54.036,170.53 50.748,168.111 54.715,168.111 		"/>
	</g>
	<g>
		<polygon fill="#FFFFFF" points="67.936,154.412 69.076,158.225 73.181,158.223 69.947,160.544 71.176,164.39 68.013,162.094 
			64.695,164.39 65.981,160.642 62.693,158.225 66.657,158.225 		"/>
	</g>
	<g>
		<polygon fill="#FFFFFF" points="78.451,145.2 79.592,149.01 83.696,149.01 80.463,151.334 81.692,155.176 78.528,152.88 
			75.209,155.176 76.496,151.43 73.206,149.01 77.172,149.01 		"/>
	</g>
	<g>
		<polygon fill="#FFFFFF" points="79.059,164.226 80.197,168.036 84.303,168.036 81.069,170.357 82.298,174.202 79.133,171.905 
			75.815,174.202 77.102,170.455 73.813,168.036 77.78,168.036 		"/>
	</g>
	<g>
		<polygon fill="#FFFFFF" points="88.365,154.315 89.506,158.126 93.609,158.126 90.376,160.448 91.606,164.292 88.441,161.996 
			85.123,164.292 86.409,160.544 83.121,158.126 87.086,158.126 		"/>
	</g>
	<g>
		<polygon fill="#FFFFFF" points="98.758,145.2 99.899,149.01 104.003,149.01 100.768,151.334 102,155.176 98.834,152.88 
			95.517,155.176 96.804,151.43 93.514,149.01 97.479,149.01 		"/>
	</g>
	<g>
		<polygon fill="#FFFFFF" points="98.904,164.202 100.045,168.013 104.148,168.013 100.916,170.335 102.145,174.179 98.981,171.883 
			95.662,174.179 96.949,170.433 93.66,168.013 97.625,168.013 		"/>
	</g>
	<g>
		<polygon fill="#FFFFFF" points="109.76,154.315 110.901,158.126 115.005,158.126 111.772,160.448 113.001,164.292 
			109.837,161.996 106.518,164.292 107.806,160.544 104.516,158.126 108.483,158.126 		"/>
	</g>
	<g>
		<polygon fill="#FFFFFF" points="120.394,145.297 121.535,149.107 125.638,149.107 122.406,151.43 123.636,155.274 
			120.471,152.979 117.153,155.274 118.439,151.526 115.148,149.107 119.115,149.107 		"/>
	</g>
	<g>
		<polygon fill="#FFFFFF" points="121.265,164.301 122.406,168.111 126.51,168.111 123.277,170.433 124.507,174.276 
			121.342,171.981 118.023,174.276 119.312,170.53 116.021,168.111 119.987,168.111 		"/>
	</g>
	<g>
		<polygon fill="#FFFFFF" points="129.945,154.412 131.086,158.225 135.19,158.223 131.957,160.544 133.188,164.39 130.022,162.094 
			126.703,164.39 127.991,160.642 124.702,158.225 128.667,158.225 		"/>
	</g>
	<g>
		<polygon fill="#FFFFFF" points="139.824,145.363 140.965,149.174 145.069,149.174 141.837,151.496 143.067,155.339 
			139.904,153.044 136.584,155.339 137.872,151.591 134.582,149.174 138.548,149.174 		"/>
	</g>
	<g>
		<polygon fill="#FFFFFF" points="140.791,164.153 141.932,167.963 146.036,167.963 142.802,170.286 144.032,174.129 
			140.867,171.833 137.55,174.129 138.836,170.383 135.547,167.963 139.512,167.963 		"/>
	</g>
	<g>
		<polygon fill="#FFFFFF" points="149.914,154.509 151.053,158.32 155.158,158.32 151.924,160.642 153.154,164.485 149.989,162.19 
			146.671,164.485 147.958,160.739 144.668,158.32 148.633,158.32 		"/>
	</g>
	<g>
		<polygon fill="#FFFFFF" points="160.857,145.363 161.999,149.174 166.103,149.174 162.87,151.496 164.101,155.339 
			160.935,153.044 157.617,155.339 158.905,151.591 155.615,149.174 159.579,149.174 		"/>
	</g>
	<g>
		<polygon fill="#FFFFFF" points="161.88,164.301 163.02,168.111 167.123,168.111 163.891,170.433 165.121,174.276 161.956,171.981 
			158.637,174.276 159.924,170.53 156.635,168.111 160.601,168.111 		"/>
	</g>
	<rect x="175.319" y="81.734" fill="#D72229" width="219.422" height="14.294"/>
	<rect x="175.319" y="110.014" fill="#D72229" width="219.422" height="14.293"/>
	<rect x="175.319" y="138.6" fill="#D72229" width="219.422" height="14.292"/>
	<rect x="43.508" y="195.651" fill="#D72229" width="351.233" height="14.293"/>
	<rect x="43.508" y="224.238" fill="#D72229" width="351.233" height="14.293"/>
	<rect x="43.508" y="252.822" fill="#D72229" width="351.233" height="14.295"/>
	<rect x="175.418" y="167.129" fill="#D72229" width="219.42" height="14.293"/>
	<g>
		<polygon fill="#FFFFFF" points="56.355,125.5 57.496,129.31 61.601,129.31 58.368,131.631 59.595,135.475 56.431,133.18 
			53.114,135.475 54.4,131.728 51.11,129.31 55.076,129.31 		"/>
	</g>
	<g>
		<polygon fill="#FFFFFF" points="68.298,134.468 69.439,138.278 73.544,138.278 70.311,140.601 71.541,144.445 68.375,142.148 
			65.058,144.445 66.344,140.698 63.056,138.278 67.02,138.278 		"/>
	</g>
	<g>
		<polygon fill="#FFFFFF" points="78.814,125.255 79.954,129.066 84.059,129.066 80.826,131.388 82.055,135.231 78.891,132.936 
			75.572,135.231 76.859,131.483 73.568,129.066 77.535,129.066 		"/>
	</g>
	<g>
		<polygon fill="#FFFFFF" points="88.729,134.37 89.869,138.182 93.973,138.182 90.74,140.503 91.97,144.346 88.805,142.051 
			85.487,144.346 86.773,140.6 83.484,138.182 87.449,138.182 		"/>
	</g>
	<g>
		<polygon fill="#FFFFFF" points="99.122,125.255 100.26,129.066 104.366,129.066 101.132,131.388 102.362,135.231 99.197,132.936 
			95.879,135.231 97.166,131.483 93.876,129.066 97.843,129.066 		"/>
	</g>
	<g>
		<polygon fill="#FFFFFF" points="110.123,134.37 111.264,138.182 115.368,138.182 112.134,140.503 113.364,144.346 110.2,142.051 
			106.882,144.346 108.168,140.6 104.878,138.182 108.844,138.182 		"/>
	</g>
	<g>
		<polygon fill="#FFFFFF" points="120.757,125.352 121.897,129.164 126,129.164 122.769,131.486 123.999,135.328 120.833,133.034 
			117.516,135.328 118.802,131.583 115.511,129.164 119.478,129.164 		"/>
	</g>
	<g>
		<polygon fill="#FFFFFF" points="130.308,134.468 131.449,138.278 135.553,138.278 132.32,140.601 133.549,144.445 
			130.385,142.148 127.067,144.445 128.353,140.698 125.062,138.278 129.029,138.278 		"/>
	</g>
	<g>
		<polygon fill="#FFFFFF" points="140.188,125.419 141.329,129.229 145.433,129.229 142.199,131.551 143.431,135.394 
			140.264,133.098 136.947,135.394 138.235,131.646 134.944,129.229 138.91,129.229 		"/>
	</g>
	<g>
		<polygon fill="#FFFFFF" points="150.274,134.565 151.416,138.375 155.521,138.374 152.288,140.697 153.516,144.541 
			150.354,142.245 147.034,144.541 148.32,140.793 145.032,138.375 148.999,138.375 		"/>
	</g>
	<g>
		<polygon fill="#FFFFFF" points="161.221,125.419 162.362,129.229 166.465,129.229 163.232,131.551 164.463,135.394 
			161.298,133.098 157.979,135.394 159.266,131.646 155.977,129.229 159.942,129.229 		"/>
	</g>
	<g>
		<polygon fill="#FFFFFF" points="56.355,106.281 57.496,110.091 61.601,110.091 58.368,112.412 59.595,116.256 56.431,113.96 
			53.114,116.256 54.4,112.509 51.11,110.091 55.076,110.091 		"/>
	</g>
	<g>
		<polygon fill="#FFFFFF" points="68.298,115.248 69.439,119.059 73.544,119.059 70.311,121.382 71.541,125.224 68.375,122.929 
			65.058,125.224 66.344,121.48 63.056,119.059 67.02,119.059 		"/>
	</g>
	<g>
		<polygon fill="#FFFFFF" points="78.814,106.037 79.954,109.846 84.059,109.846 80.826,112.168 82.055,116.012 78.891,113.717 
			75.572,116.012 76.859,112.266 73.568,109.846 77.535,109.846 		"/>
	</g>
	<g>
		<polygon fill="#FFFFFF" points="88.729,115.152 89.869,118.962 93.973,118.962 90.74,121.284 91.97,125.127 88.805,122.832 
			85.487,125.127 86.773,121.38 83.484,118.962 87.449,118.962 		"/>
	</g>
	<g>
		<polygon fill="#FFFFFF" points="99.122,106.037 100.26,109.846 104.366,109.846 101.132,112.168 102.362,116.012 99.197,113.717 
			95.879,116.012 97.166,112.266 93.876,109.846 97.843,109.846 		"/>
	</g>
	<g>
		<polygon fill="#FFFFFF" points="110.123,115.152 111.264,118.962 115.368,118.962 112.134,121.284 113.364,125.127 110.2,122.832 
			106.882,125.127 108.168,121.38 104.878,118.962 108.844,118.962 		"/>
	</g>
	<g>
		<polygon fill="#FFFFFF" points="120.757,106.133 121.897,109.943 126,109.943 122.769,112.267 123.999,116.109 120.833,113.814 
			117.516,116.109 118.802,112.362 115.511,109.943 119.478,109.943 		"/>
	</g>
	<g>
		<polygon fill="#FFFFFF" points="130.308,115.248 131.449,119.059 135.553,119.059 132.32,121.382 133.549,125.224 
			130.385,122.929 127.067,125.224 128.353,121.48 125.062,119.059 129.029,119.059 		"/>
	</g>
	<g>
		<polygon fill="#FFFFFF" points="140.188,106.199 141.329,110.01 145.433,110.01 142.199,112.33 143.431,116.174 140.264,113.88 
			136.947,116.174 138.235,112.428 134.944,110.01 138.91,110.01 		"/>
	</g>
	<g>
		<polygon fill="#FFFFFF" points="150.274,115.345 151.416,119.155 155.521,119.155 152.288,121.479 153.516,125.321 
			150.354,123.026 147.034,125.321 148.32,121.576 145.032,119.155 148.999,119.155 		"/>
	</g>
	<g>
		<polygon fill="#FFFFFF" points="161.221,106.199 162.362,110.01 166.465,110.01 163.232,112.33 164.463,116.174 161.298,113.88 
			157.979,116.174 159.266,112.428 155.977,110.01 159.942,110.01 		"/>
	</g>
	<g>
		<polygon fill="#FFFFFF" points="56.355,88.874 57.496,92.684 61.601,92.684 58.368,95.006 59.595,98.85 56.431,96.554 
			53.114,98.85 54.4,95.103 51.11,92.684 55.076,92.684 		"/>
	</g>
	<g>
		<polygon fill="#FFFFFF" points="68.298,97.842 69.439,101.654 73.544,101.653 70.311,103.976 71.541,107.818 68.375,105.524 
			65.058,107.818 66.344,104.073 63.056,101.654 67.02,101.654 		"/>
	</g>
	<g>
		<polygon fill="#FFFFFF" points="78.814,88.63 79.954,92.44 84.059,92.44 80.826,94.763 82.055,98.605 78.891,96.311 
			75.572,98.605 76.859,94.859 73.568,92.44 77.535,92.44 		"/>
	</g>
	<g>
		<polygon fill="#FFFFFF" points="88.729,97.745 89.869,101.556 93.973,101.556 90.74,103.877 91.97,107.721 88.805,105.426 
			85.487,107.721 86.773,103.976 83.484,101.556 87.449,101.556 		"/>
	</g>
	<g>
		<polygon fill="#FFFFFF" points="99.122,88.63 100.26,92.44 104.366,92.44 101.132,94.763 102.362,98.605 99.197,96.311 
			95.879,98.605 97.166,94.859 93.876,92.44 97.843,92.44 		"/>
	</g>
	<g>
		<polygon fill="#FFFFFF" points="110.123,97.745 111.264,101.556 115.368,101.556 112.134,103.877 113.364,107.721 110.2,105.426 
			106.882,107.721 108.168,103.976 104.878,101.556 108.844,101.556 		"/>
	</g>
	<g>
		<polygon fill="#FFFFFF" points="120.757,88.727 121.897,92.538 126,92.538 122.769,94.861 123.999,98.703 120.833,96.409 
			117.516,98.703 118.802,94.955 115.511,92.538 119.478,92.538 		"/>
	</g>
	<g>
		<polygon fill="#FFFFFF" points="130.308,97.842 131.449,101.654 135.553,101.653 132.32,103.976 133.549,107.818 130.385,105.524 
			127.067,107.818 128.353,104.073 125.062,101.654 129.029,101.654 		"/>
	</g>
	<g>
		<polygon fill="#FFFFFF" points="140.188,88.792 141.329,92.604 145.433,92.604 142.199,94.924 143.431,98.768 140.264,96.472 
			136.947,98.768 138.235,95.021 134.944,92.604 138.91,92.604 		"/>
	</g>
	<g>
		<polygon fill="#FFFFFF" points="150.274,97.939 151.416,101.75 155.521,101.75 152.288,104.071 153.516,107.915 150.354,105.62 
			147.034,107.915 148.32,104.168 145.032,101.75 148.999,101.75 		"/>
	</g>
	<g>
		<polygon fill="#FFFFFF" points="161.221,88.792 162.362,92.604 166.465,92.604 163.232,94.924 164.463,98.768 161.298,96.472 
			157.979,98.768 159.266,95.021 155.977,92.604 159.942,92.604 		"/>
	</g>
</g>
<g>
	<path d="M53.67,328.844V291.34c0-0.836,0.758-1.252,2.275-1.252h2.045c1.21,0,2.007,0.342,2.386,1.023l10.74,18.641l1.478,3.578
		l1.478-3.238l10.741-18.98c0.379-0.682,1.174-1.023,2.387-1.023h1.875c1.515,0,2.273,0.416,2.273,1.252v37.504
		c0,0.836-0.758,1.252-2.273,1.252h-0.396c-1.516,0-2.274-0.416-2.274-1.252v-30.572l-11.423,19.891
		c-0.266,0.492-0.682,0.74-1.249,0.74h-2.274c-0.57,0-0.985-0.248-1.251-0.74l-11.593-20.23v30.912c0,0.836-0.757,1.252-2.271,1.252
		h-0.398C54.428,330.096,53.67,329.68,53.67,328.844z"/>
	<path d="M97.145,329.127c0-0.186,0.057-0.453,0.17-0.793l13.468-37.338c0.19-0.605,0.947-0.908,2.274-0.908h1.647
		c1.325,0,2.082,0.303,2.273,0.908l13.469,37.395c0.112,0.264,0.17,0.512,0.17,0.736c0,0.646-0.816,0.969-2.444,0.969h-0.455
		c-1.326,0-2.083-0.303-2.273-0.908l-3.353-9.32h-16.709l-3.238,9.32c-0.189,0.605-0.947,0.908-2.273,0.908h-0.286
		C97.958,330.096,97.145,329.773,97.145,329.127z M106.976,315.547h13.582l-5.967-16.936l-0.738-3.295l-0.91,3.295L106.976,315.547z
		"/>
	<path d="M136.812,328.277v-36.371c0-1.139,0.566-1.705,1.703-1.705h11.479c5.305,0,9.558,1.584,12.759,4.748
		c3.201,3.16,4.802,8.221,4.802,15.17c0,6.953-1.601,12.002-4.802,15.146c-3.201,3.146-7.454,4.717-12.759,4.717h-11.479
		C137.378,329.982,136.812,329.416,136.812,328.277z M141.811,325.662h7.786c3.826,0,6.916-1.248,9.264-3.748
		c2.347-2.502,3.521-6.432,3.521-11.795c0-5.359-1.174-9.301-3.521-11.818c-2.349-2.52-5.438-3.779-9.264-3.779h-7.786V325.662z"/>
	<path d="M176.305,328.277v-36.371c0-1.139,0.569-1.705,1.705-1.705h19.834c0.757,0,1.137,0.566,1.137,1.705v0.91
		c0,1.139-0.38,1.705-1.137,1.705h-16.538v12.959h14.832c0.758,0,1.137,0.566,1.137,1.703v0.908c0,1.135-0.379,1.707-1.137,1.707
		h-14.832v13.863H197.9c0.758,0,1.137,0.57,1.137,1.705v0.91c0,1.139-0.379,1.705-1.137,1.705h-19.89
		C176.875,329.982,176.305,329.416,176.305,328.277z"/>
	<path d="M220.974,328.844V291.34c0-0.836,0.755-1.252,2.271-1.252h0.457c1.511,0,2.271,0.416,2.271,1.252v37.504
		c0,0.836-0.761,1.252-2.271,1.252h-0.457C221.729,330.096,220.974,329.68,220.974,328.844z"/>
	<path d="M236.602,328.844V291.34c0-0.836,0.755-1.252,2.271-1.252h1.192c1.062,0,1.856,0.361,2.389,1.08l18.126,27.391l1.705,3.182
		v-30.4c0-0.836,0.758-1.252,2.276-1.252h0.395c1.517,0,2.274,0.416,2.274,1.252v37.504c0,0.836-0.758,1.252-2.274,1.252h-1.136
		c-0.984,0-1.647-0.264-1.988-0.795L243.078,301l-1.536-2.9v30.744c0,0.836-0.756,1.252-2.271,1.252h-0.397
		C237.356,330.096,236.602,329.68,236.602,328.844z"/>
	<path d="M290.697,317.252V291.34c0-0.836,0.761-1.252,2.276-1.252h0.452c1.517,0,2.274,0.416,2.274,1.252v26.082
		c0,2.502,0.997,4.557,2.985,6.168c1.988,1.609,4.498,2.416,7.527,2.416c3.032,0,5.545-0.807,7.531-2.416
		c1.99-1.611,2.984-3.666,2.984-6.168V291.34c0-0.836,0.756-1.252,2.271-1.252h0.458c1.511,0,2.271,0.416,2.271,1.252v25.912
		c0,4.131-1.348,7.342-4.036,9.633c-2.689,2.291-6.527,3.438-11.508,3.438c-4.982,0-8.808-1.146-11.479-3.438
		S290.697,321.383,290.697,317.252z"/>
	<path d="M328.549,326.174c0-0.455,0.254-1.078,0.766-1.875s0.92-1.193,1.223-1.193c0.114,0,0.587,0.236,1.419,0.711
		c0.833,0.475,2.011,0.957,3.524,1.449s3.248,0.74,5.202,0.74c1.948,0,3.616-0.627,5-1.879c1.382-1.248,2.073-2.838,2.073-4.771
		s-0.637-3.465-1.904-4.604c-1.27-1.137-2.803-2.035-4.603-2.699s-3.608-1.371-5.428-2.133c-1.819-0.756-3.363-1.934-4.633-3.523
		c-1.268-1.592-1.903-3.613-1.903-6.08c0-3.143,1.157-5.672,3.469-7.584c2.31-1.914,5.358-2.871,9.146-2.871
		c1.859,0,3.848,0.34,5.97,1.021c2.122,0.686,3.182,1.498,3.182,2.445c0,0.418-0.236,1.023-0.711,1.818
		c-0.475,0.797-0.843,1.193-1.108,1.193c-0.149,0-0.547-0.188-1.19-0.568c-1.934-1.062-4.02-1.592-6.254-1.592
		s-4.016,0.541-5.341,1.619c-1.327,1.078-1.99,2.662-1.99,4.746s1.229,3.713,3.695,4.887c1.059,0.492,2.252,0.975,3.579,1.451
		c1.327,0.473,2.645,1.021,3.951,1.646c1.306,0.625,2.501,1.355,3.579,2.186c1.079,0.836,1.959,1.971,2.643,3.41
		c0.683,1.441,1.023,3.107,1.023,5.004c0,3.486-1.136,6.221-3.41,8.209c-2.273,1.992-5.152,2.984-8.637,2.984
		c-3.489,0-6.414-0.475-8.783-1.42C329.732,327.953,328.549,327.045,328.549,326.174z"/>
	<path d="M355.54,329.127c0-0.186,0.06-0.453,0.171-0.793l13.469-37.338c0.188-0.605,0.946-0.908,2.276-0.908h1.646
		c1.327,0,2.082,0.303,2.273,0.908l13.469,37.395c0.114,0.264,0.169,0.512,0.169,0.736c0,0.646-0.815,0.969-2.443,0.969h-0.455
		c-1.327,0-2.082-0.303-2.271-0.908l-3.355-9.32h-16.706l-3.238,9.32c-0.191,0.605-0.947,0.908-2.274,0.908h-0.283
		C356.355,330.096,355.54,329.773,355.54,329.127z M365.372,315.547h13.582l-5.967-16.936l-0.738-3.295l-0.91,3.295L365.372,315.547
		z"/>
</g>
</svg>
