<?xml version="1.0" encoding="UTF-8"?>
<svg xmlns="http://www.w3.org/2000/svg" viewBox="0 0 258.9 46.6" width="258.9" height="46.6">
  <style>
    /* AUTO MODE: Adapts to dark/light background automatically */
    /* To hard-code a color, comment out the @media block below and uncomment ONE of the overrides at the bottom */
    .logo-text { fill: #000000; }
    @media (prefers-color-scheme: dark) {
      .logo-text { fill: #FFFFFF; }
    }

    /* HARD-CODE BLACK: Uncomment the line below (and comment out the @media block above) */
    /* .logo-text { fill: #000000 !important; } */

    /* HARD-CODE WHITE: Uncomment the line below (and comment out the @media block above) */
    /* .logo-text { fill: #FFFFFF !important; } */
  </style>
  <g transform="translate(0, 36.7)" class="logo-text">
    <path d="M832 877Q832 1029 804.0 1124.5Q776 1220 727 1272Q683 1320 638.0 1338.0Q593 1356 539 1356Q416 1356 343.0 1268.0Q270 1180 270 1013Q270 919 294.0 858.0Q318 797 372 753Q410 722 458.0 711.5Q506 701 561 701Q625 701 699.0 723.5Q773 746 828 783Q829 798 830.5 822.5Q832 847 832 877ZM67 1005Q67 1120 104.5 1215.0Q142 1310 207 1379Q269 1445 358.5 1482.0Q448 1519 540 1519Q643 1519 726.5 1484.5Q810 1450 871 1385Q948 1303 990.5 1170.0Q1033 1037 1033 834Q1033 649 991.5 483.5Q950 318 869 209Q783 93 662.5 32.0Q542 -29 365 -29Q325 -29 280.0 -24.5Q235 -20 196 -8V183H206Q231 169 284.0 156.0Q337 143 392 143Q588 143 700.0 272.0Q812 401 827 641Q747 587 674.5 562.0Q602 537 517 537Q434 537 366.0 555.0Q298 573 229 625Q149 686 108.0 779.5Q67 873 67 1005Z" transform="translate(0.0, 0) scale(0.0234375, -0.0234375)"/><path d="M621 -26Q354 -26 206.5 124.5Q59 275 59 552Q59 825 202.0 986.5Q345 1148 576 1148Q680 1148 760.0 1118.0Q840 1088 900 1024Q960 960 992.0 867.5Q1024 775 1024 641V539H250Q250 344 348.0 241.0Q446 138 619 138Q681 138 740.5 152.0Q800 166 848 188Q899 211 934.0 232.5Q969 254 992 273H1003V68Q970 55 921.0 35.5Q872 16 833 5Q778 -10 733.5 -18.0Q689 -26 621 -26ZM841 683Q839 759 823.0 814.0Q807 869 777 907Q744 949 692.5 971.0Q641 993 565 993Q490 993 437.5 970.5Q385 948 342 905Q300 861 278.0 807.5Q256 754 250 683Z" transform="translate(26.203125, 0) scale(0.0234375, -0.0234375)"/><path d="M728 915H718Q697 921 673.5 922.5Q650 924 617 924Q541 924 466.0 891.0Q391 858 324 793V0H136V1117H324V951Q427 1042 503.5 1079.5Q580 1117 652 1117Q681 1117 695.5 1115.5Q710 1114 728 1111Z" transform="translate(51.46875, 0) scale(0.0234375, -0.0234375)"/><path d="M566 -27Q404 -27 290.5 6.5Q177 40 77 89V337H91Q189 245 313.0 194.5Q437 144 552 144Q716 144 800.0 212.5Q884 281 884 393Q884 482 840.0 538.0Q796 594 700 621Q631 641 574.0 654.0Q517 667 431 689Q354 709 293.0 740.0Q232 771 185 821Q139 870 113.5 936.5Q88 1003 88 1090Q88 1271 229.0 1393.5Q370 1516 589 1516Q714 1516 825.5 1491.0Q937 1466 1032 1420V1183H1017Q946 1248 835.0 1296.5Q724 1345 602 1345Q464 1345 379.0 1280.5Q294 1216 294 1111Q294 1016 344.0 960.0Q394 904 489 878Q552 861 643.0 839.5Q734 818 794 800Q948 753 1019.0 658.0Q1090 563 1090 424Q1090 337 1054.5 252.0Q1019 167 955 108Q883 43 792.5 8.0Q702 -27 566 -27Z" transform="translate(83.765625, 0) scale(0.0234375, -0.0234375)"/><path d="M1014 1117 413 -412H212L412 54L6 1117H209L514 290L818 1117Z" transform="translate(110.5078125, 0) scale(0.0234375, -0.0234375)"/><path d="M438 -27Q326 -27 228.5 3.0Q131 33 67 67V278H77Q101 259 133.5 236.0Q166 213 220 188Q268 166 325.5 149.0Q383 132 445 132Q490 132 541.0 142.5Q592 153 617 169Q652 192 667.5 218.0Q683 244 683 296Q683 363 646.5 397.0Q610 431 517 454Q481 463 423.0 475.0Q365 487 316 501Q188 538 130.0 615.5Q72 693 72 803Q72 954 186.0 1049.0Q300 1144 489 1144Q582 1144 676.0 1121.0Q770 1098 834 1063V862H824Q752 919 663.5 952.0Q575 985 485 985Q392 985 328.0 946.0Q264 907 264 828Q264 758 302.0 723.5Q340 689 424 667Q466 656 517.5 645.5Q569 635 626 621Q750 590 812.5 518.0Q875 446 875 322Q875 250 846.5 185.5Q818 121 763 75Q703 25 627.5 -1.0Q552 -27 438 -27Z" transform="translate(134.4140625, 0) scale(0.0234375, -0.0234375)"/><path d="M474 -22Q320 -22 234.0 65.5Q148 153 148 342V961H21V1117H148V1438H336V1117H682V961H336V430Q336 345 339.0 299.0Q342 253 362 213Q379 178 417.0 160.5Q455 143 520 143Q566 143 609.0 156.5Q652 170 671 179H682V10Q629 -5 574.5 -13.5Q520 -22 474 -22Z" transform="translate(155.8359375, 0) scale(0.0234375, -0.0234375)"/><path d="M621 -26Q354 -26 206.5 124.5Q59 275 59 552Q59 825 202.0 986.5Q345 1148 576 1148Q680 1148 760.0 1118.0Q840 1088 900 1024Q960 960 992.0 867.5Q1024 775 1024 641V539H250Q250 344 348.0 241.0Q446 138 619 138Q681 138 740.5 152.0Q800 166 848 188Q899 211 934.0 232.5Q969 254 992 273H1003V68Q970 55 921.0 35.5Q872 16 833 5Q778 -10 733.5 -18.0Q689 -26 621 -26ZM841 683Q839 759 823.0 814.0Q807 869 777 907Q744 949 692.5 971.0Q641 993 565 993Q490 993 437.5 970.5Q385 948 342 905Q300 861 278.0 807.5Q256 754 250 683Z" transform="translate(171.890625, 0) scale(0.0234375, -0.0234375)"/><path d="M1404 0V646Q1404 723 1398.0 788.5Q1392 854 1373 891Q1353 931 1316.0 950.0Q1279 969 1216 969Q1158 969 1091.5 933.5Q1025 898 954 831Q955 814 956.5 790.5Q958 767 958 735V0H770V646Q770 723 764.0 788.5Q758 854 739 891Q719 931 682.0 950.0Q645 969 582 969Q521 969 454.0 931.0Q387 893 324 834V0H136V1117H324V993Q398 1067 470.5 1107.5Q543 1148 630 1148Q729 1148 805.5 1103.0Q882 1058 922 955Q1007 1050 1088.0 1099.0Q1169 1148 1264 1148Q1336 1148 1395.0 1125.5Q1454 1103 1498 1053Q1543 1002 1567.5 926.0Q1592 850 1592 735V0Z" transform="translate(197.15625, 0) scale(0.0234375, -0.0234375)"/><path d="M438 -27Q326 -27 228.5 3.0Q131 33 67 67V278H77Q101 259 133.5 236.0Q166 213 220 188Q268 166 325.5 149.0Q383 132 445 132Q490 132 541.0 142.5Q592 153 617 169Q652 192 667.5 218.0Q683 244 683 296Q683 363 646.5 397.0Q610 431 517 454Q481 463 423.0 475.0Q365 487 316 501Q188 538 130.0 615.5Q72 693 72 803Q72 954 186.0 1049.0Q300 1144 489 1144Q582 1144 676.0 1121.0Q770 1098 834 1063V862H824Q752 919 663.5 952.0Q575 985 485 985Q392 985 328.0 946.0Q264 907 264 828Q264 758 302.0 723.5Q340 689 424 667Q466 656 517.5 645.5Q569 635 626 621Q750 590 812.5 518.0Q875 446 875 322Q875 250 846.5 185.5Q818 121 763 75Q703 25 627.5 -1.0Q552 -27 438 -27Z" transform="translate(237.46875, 0) scale(0.0234375, -0.0234375)"/>
  </g>
</svg>