<?xml version="1.0" encoding="UTF-8"?>
<svg xmlns="http://www.w3.org/2000/svg" viewBox="0 0 580 60" width="580" height="60">
  <!-- 9er Systems Logo -->
  <g transform="translate(5, 5) scale(0.131)">
    <path d="M88.827 15.517 C 60.330 20.678,34.805 39.323,22.308 64.109 C 9.277 89.954,9.306 129.129,22.373 153.989 C 43.857 194.859,105.404 208.219,156.349 183.072 C 161.806 180.378,166.592 178.037,166.986 177.870 C 167.986 177.444,166.912 187.011,164.991 195.635 C 158.310 225.628,142.002 247.877,118.690 258.801 C 98.607 268.213,69.078 269.494,48.164 261.861 C 38.011 258.156,38.889 256.690,38.889 277.359 L 38.889 295.194 43.056 296.393 C 52.855 299.213,78.749 300.225,93.672 298.371 C 166.981 289.262,206.520 233.658,206.512 139.683 C 206.507 79.438,189.301 41.961,153.351 23.888 C 136.546 15.440,108.993 11.865,88.827 15.517 M122.450 46.782 C 154.854 55.070,172.158 90.477,168.688 141.392 L 168.115 149.792 160.447 153.429 C 122.739 171.313,78.615 167.530,61.170 144.917 C 48.288 128.220,46.883 94.519,58.156 72.620 C 69.246 51.077,96.468 40.137,122.450 46.782 M240.476 194.113 C 214.471 200.974,200.024 230.178,206.746 262.302 C 213.678 295.433,249.229 308.370,290.700 292.854 L 295.238 291.156 295.238 281.689 C 295.238 270.864,295.646 271.212,287.868 275.407 C 255.326 292.960,223.222 280.282,223.030 249.802 L 223.016 247.619 259.921 247.619 L 296.825 247.619 296.825 238.222 C 296.825 214.178,286.854 199.029,267.753 194.054 C 261.844 192.515,246.408 192.548,240.476 194.113 M321.429 246.429 L 321.429 296.825 330.556 296.825 L 339.683 296.825 339.683 261.147 L 339.683 225.470 343.452 222.590 C 345.526 221.007,349.901 218.401,353.175 216.800 L 359.127 213.889 372.024 213.907 L 384.921 213.926 384.921 205.460 C 384.921 195.418,385.632 196.028,373.943 196.040 C 362.209 196.052,355.602 198.318,344.643 206.087 L 339.683 209.604 339.683 202.818 L 339.683 196.032 330.556 196.032 L 321.429 196.032 321.429 246.429 M267.432 209.942 C 274.621 213.853,278.263 220.124,279.748 231.151 L 280.256 234.921 251.636 234.921 C 235.895 234.921,223.020 234.653,223.025 234.325 C 223.139 227.153,230.353 215.160,237.040 211.027 C 244.726 206.278,259.712 205.742,267.432 209.942 M172.222 300.397 L 172.222 307.143 169.841 307.143 C 167.593 307.143,167.460 307.319,167.460 310.317 C 167.460 313.290,167.606 313.492,169.758 313.492 L 172.057 313.492 172.338 329.167 C 172.722 350.577,174.765 353.980,187.221 353.957 C 196.228 353.941,196.825 353.665,196.825 349.523 L 196.825 346.056 192.140 346.546 C 181.702 347.637,180.952 346.356,180.952 327.420 L 180.952 313.492 188.889 313.492 L 196.825 313.492 196.825 310.317 L 196.825 307.143 188.889 307.143 L 180.952 307.143 180.952 300.397 L 180.952 293.651 176.587 293.651 L 172.222 293.651 172.222 300.397 M41.790 306.713 C 35.882 308.820,32.357 313.726,32.357 319.841 C 32.357 327.560,36.082 330.857,47.655 333.383 C 58.116 335.666,59.490 336.543,59.512 340.948 C 59.544 347.392,48.498 349.070,38.517 344.138 C 31.256 340.549,31.746 340.414,31.746 346.000 L 31.746 350.730 36.988 352.349 C 53.744 357.524,68.259 351.650,68.251 339.697 C 68.246 331.684,64.513 328.279,53.175 325.944 C 45.210 324.303,43.179 323.452,41.645 321.109 C 36.975 313.983,51.514 309.767,61.504 315.350 C 66.612 318.205,66.780 318.122,66.508 312.897 L 66.270 308.333 62.302 306.979 C 57.429 305.317,46.118 305.170,41.790 306.713 M135.441 306.713 C 129.533 308.820,126.007 313.726,126.007 319.841 C 126.007 327.560,129.733 330.857,141.306 333.383 C 151.766 335.666,153.141 336.543,153.162 340.948 C 153.194 347.392,142.149 349.070,132.168 344.138 C 124.906 340.549,125.397 340.414,125.397 346.000 L 125.397 350.730 130.639 352.349 C 147.395 357.524,161.910 351.650,161.902 339.697 C 161.896 331.684,158.164 328.279,146.825 325.944 C 138.861 324.303,136.830 323.452,135.295 321.109 C 130.626 313.983,145.165 309.767,155.155 315.350 C 160.262 318.205,160.431 318.122,160.159 312.897 L 159.921 308.333 155.952 306.979 C 151.080 305.317,139.769 305.170,135.441 306.713 M214.460 307.601 C 197.260 316.173,198.640 346.648,216.504 352.735 C 220.731 354.175,232.557 354.394,236.588 353.106 C 243.877 350.778,243.651 350.998,243.651 346.247 C 243.651 343.062,243.385 342.010,242.659 342.328 C 231.074 347.406,224.479 348.250,219.035 345.354 C 215.250 343.341,212.019 338.503,211.403 333.929 L 210.895 330.159 227.670 330.159 L 244.444 330.159 244.444 325.100 C 244.444 308.972,229.367 300.173,214.460 307.601 M270.238 307.272 C 268.492 308.178,266.438 309.468,265.675 310.138 C 264.395 311.262,264.286 311.192,264.286 309.250 C 264.286 307.225,264.116 307.143,259.921 307.143 L 255.556 307.143 255.556 330.159 L 255.556 353.175 259.921 353.175 L 264.286 353.175 264.286 335.730 L 264.286 318.286 268.452 315.897 C 271.442 314.182,273.666 313.505,276.324 313.500 C 284.577 313.483,284.921 314.386,284.921 336.072 L 284.921 353.175 289.286 353.175 L 293.651 353.175 293.651 335.730 L 293.651 318.286 297.817 315.897 C 300.958 314.095,302.989 313.505,306.063 313.500 C 314.130 313.485,314.993 315.865,315.045 338.294 L 315.079 353.175 319.048 353.175 L 323.016 353.175 323.016 334.692 C 323.016 313.854,322.383 311.092,316.748 307.348 C 311.298 303.726,300.447 305.250,294.098 310.530 L 291.767 312.468 289.837 310.174 C 285.688 305.243,276.712 303.915,270.238 307.272 M344.171 306.713 C 338.263 308.820,334.737 313.726,334.737 319.841 C 334.737 327.560,338.463 330.857,350.036 333.383 C 360.496 335.666,361.871 336.543,361.893 340.948 C 361.924 347.392,350.879 349.070,340.898 344.138 C 333.637 340.549,334.127 340.414,334.127 346.000 L 334.127 350.730 339.369 352.349 C 356.125 357.524,370.640 351.650,370.632 339.697 C 370.627 331.684,366.894 328.279,355.556 325.944 C 347.591 324.303,345.560 323.452,344.026 321.109 C 339.356 313.983,353.895 309.767,363.885 315.350 C 368.993 318.205,369.161 318.122,368.889 312.897 L 368.651 308.333 364.683 306.979 C 359.810 305.317,348.499 305.170,344.171 306.713 M73.810 307.621 C 73.810 307.884,77.738 317.459,82.540 328.898 C 92.777 353.287,92.208 349.513,87.302 360.473 C 85.119 365.348,83.333 369.451,83.333 369.589 C 83.333 369.728,85.399 369.841,87.924 369.841 L 92.515 369.841 105.583 339.173 C 112.770 322.306,118.776 308.180,118.929 307.782 C 119.084 307.382,117.148 307.166,114.591 307.299 L 109.974 307.540 103.433 323.016 C 99.835 331.528,96.770 338.809,96.623 339.197 C 96.476 339.584,93.336 332.536,89.646 323.533 L 82.937 307.164 78.373 307.153 C 75.863 307.148,73.810 307.358,73.810 307.621 M231.497 314.246 C 234.419 316.028,235.357 317.524,236.129 321.642 L 236.685 324.603 223.812 324.603 L 210.939 324.603 211.458 322.421 C 213.384 314.313,224.303 309.860,231.497 314.246"
          stroke="none" fill="#000000" fill-rule="evenodd"/>
  </g>
  <!-- "An Aviation Audio Company" in Tahoma with synthetic italic (paths) -->
  <g fill="#000000" transform="translate(62, 37)">
    <path d="M-10 0 492 1489H736L1238 0H1029L894 416H325L190 0ZM839 585 609 1287 380 585Z" transform="matrix(0.008789, 0, 0.001868, -0.008789, 0.00, 0)"/>
    <path d="M1014 0H826V636Q826 713 818.5 779.5Q811 846 790 886Q767 928 726.0 948.5Q685 969 614 969Q544 969 469.5 931.5Q395 894 324 834V0H136V1117H324V993Q408 1068 490.0 1108.0Q572 1148 663 1148Q828 1148 921.0 1039.5Q1014 931 1014 725Z" transform="matrix(0.008789, 0, 0.001868, -0.008789, 10.79, 0)"/>
    <path d="M-10 0 492 1489H736L1238 0H1029L894 416H325L190 0ZM839 585 609 1287 380 585Z" transform="matrix(0.008789, 0, 0.001868, -0.008789, 26.46, 0)"/>
    <path d="M1014 1117 593 0H424L6 1117H209L515 255L818 1117Z" transform="matrix(0.008789, 0, 0.001868, -0.008789, 37.25, 0)"/>
    <path d="M328 0H140V1117H328ZM341 1304H127V1499H341Z" transform="matrix(0.008789, 0, 0.001868, -0.008789, 46.21, 0)"/>
    <path d="M760 275V585Q693 579 590.5 568.5Q488 558 425 539Q350 516 301.0 468.5Q252 421 252 336Q252 240 306.0 191.0Q360 142 464 142Q553 142 625.0 180.5Q697 219 760 275ZM760 119Q737 102 698.5 71.5Q660 41 624 23Q574 -3 527.5 -17.0Q481 -31 397 -31Q328 -31 266.0 -5.0Q204 21 157 68Q112 114 85.0 181.5Q58 249 58 324Q58 440 107.0 521.5Q156 603 262 651Q356 694 484.0 710.5Q612 727 760 735V771Q760 837 740.0 877.5Q720 918 684 940Q648 963 596.0 970.5Q544 978 489 978Q424 978 336.0 958.5Q248 939 160 902H149V1093Q201 1108 298.0 1126.0Q395 1144 490 1144Q605 1144 684.0 1126.0Q763 1108 826 1061Q887 1015 917.0 942.0Q947 869 947 764V0H760Z" transform="matrix(0.008789, 0, 0.001868, -0.008789, 50.33, 0)"/>
    <path d="M474 -22Q320 -22 234.0 65.5Q148 153 148 342V961H21V1117H148V1438H336V1117H682V961H336V430Q336 345 339.0 299.0Q342 253 362 213Q379 178 417.0 160.5Q455 143 520 143Q566 143 609.0 156.5Q652 170 671 179H682V10Q629 -5 574.5 -13.5Q520 -22 474 -22Z" transform="matrix(0.008789, 0, 0.001868, -0.008789, 59.77, 0)"/>
    <path d="M328 0H140V1117H328ZM341 1304H127V1499H341Z" transform="matrix(0.008789, 0, 0.001868, -0.008789, 65.79, 0)"/>
    <path d="M1055 558Q1055 276 919.0 122.5Q783 -31 557 -31Q324 -31 190.5 127.5Q57 286 57 558Q57 838 194.5 993.0Q332 1148 557 1148Q783 1148 919.0 993.5Q1055 839 1055 558ZM861 558Q861 775 782.0 880.5Q703 986 557 986Q410 986 330.5 880.5Q251 775 251 558Q251 348 330.5 239.5Q410 131 557 131Q702 131 781.5 237.5Q861 344 861 558Z" transform="matrix(0.008789, 0, 0.001868, -0.008789, 69.91, 0)"/>
    <path d="M1014 0H826V636Q826 713 818.5 779.5Q811 846 790 886Q767 928 726.0 948.5Q685 969 614 969Q544 969 469.5 931.5Q395 894 324 834V0H136V1117H324V993Q408 1068 490.0 1108.0Q572 1148 663 1148Q828 1148 921.0 1039.5Q1014 931 1014 725Z" transform="matrix(0.008789, 0, 0.001868, -0.008789, 79.68, 0)"/>
    <path d="M-10 0 492 1489H736L1238 0H1029L894 416H325L190 0ZM839 585 609 1287 380 585Z" transform="matrix(0.008789, 0, 0.001868, -0.008789, 95.34, 0)"/>
    <path d="M1006 0H818V124Q731 48 653.0 8.5Q575 -31 479 -31Q406 -31 341.5 -7.0Q277 17 229 69Q181 121 154.5 200.0Q128 279 128 392V1117H316V481Q316 392 322.5 333.5Q329 275 352 231Q375 188 414.5 168.0Q454 148 528 148Q597 148 675.0 187.0Q753 226 818 283V1117H1006Z" transform="matrix(0.008789, 0, 0.001868, -0.008789, 106.14, 0)"/>
    <path d="M996 0H808V114Q764 77 732.0 53.0Q700 29 657 9Q617 -10 574.0 -20.5Q531 -31 474 -31Q383 -31 305.5 7.0Q228 45 174 118Q119 192 89.0 300.5Q59 409 59 550Q59 697 97.0 804.5Q135 912 202 992Q263 1065 349.5 1106.5Q436 1148 531 1148Q615 1148 677.0 1129.5Q739 1111 808 1072V1556H996ZM808 272V916Q738 950 682.5 963.0Q627 976 562 976Q417 976 335.0 867.5Q253 759 253 554Q253 357 316.0 252.5Q379 148 518 148Q592 148 667.0 181.5Q742 215 808 272Z" transform="matrix(0.008789, 0, 0.001868, -0.008789, 116.17, 0)"/>
    <path d="M328 0H140V1117H328ZM341 1304H127V1499H341Z" transform="matrix(0.008789, 0, 0.001868, -0.008789, 126.12, 0)"/>
    <path d="M1055 558Q1055 276 919.0 122.5Q783 -31 557 -31Q324 -31 190.5 127.5Q57 286 57 558Q57 838 194.5 993.0Q332 1148 557 1148Q783 1148 919.0 993.5Q1055 839 1055 558ZM861 558Q861 775 782.0 880.5Q703 986 557 986Q410 986 330.5 880.5Q251 775 251 558Q251 348 330.5 239.5Q410 131 557 131Q702 131 781.5 237.5Q861 344 861 558Z" transform="matrix(0.008789, 0, 0.001868, -0.008789, 130.24, 0)"/>
    <path d="M733 -27Q587 -27 464.5 22.0Q342 71 253 168Q164 265 115.0 410.0Q66 555 66 743Q66 930 113.5 1069.0Q161 1208 252 1311Q341 1411 463.0 1463.5Q585 1516 736 1516Q811 1516 876.5 1505.0Q942 1494 998 1477Q1046 1462 1096.5 1439.5Q1147 1417 1196 1390V1151H1180Q1154 1175 1113.0 1209.0Q1072 1243 1013 1276Q956 1307 889.0 1327.0Q822 1347 734 1347Q639 1347 554.0 1308.0Q469 1269 405 1193Q342 1117 307.0 1002.0Q272 887 272 743Q272 590 309.0 479.5Q346 369 410 293Q472 219 556.0 181.5Q640 144 734 144Q820 144 893.0 165.0Q966 186 1023 218Q1078 249 1118.0 281.5Q1158 314 1181 337H1196V101Q1147 78 1103.5 57.0Q1060 36 998 16Q933 -5 877.5 -16.0Q822 -27 733 -27Z" transform="matrix(0.008789, 0, 0.001868, -0.008789, 145.63, 0)"/>
    <path d="M1055 558Q1055 276 919.0 122.5Q783 -31 557 -31Q324 -31 190.5 127.5Q57 286 57 558Q57 838 194.5 993.0Q332 1148 557 1148Q783 1148 919.0 993.5Q1055 839 1055 558ZM861 558Q861 775 782.0 880.5Q703 986 557 986Q410 986 330.5 880.5Q251 775 251 558Q251 348 330.5 239.5Q410 131 557 131Q702 131 781.5 237.5Q861 344 861 558Z" transform="matrix(0.008789, 0, 0.001868, -0.008789, 156.45, 0)"/>
    <path d="M1404 0V646Q1404 723 1398.0 788.5Q1392 854 1373 891Q1353 931 1316.0 950.0Q1279 969 1216 969Q1158 969 1091.5 933.5Q1025 898 954 831Q955 814 956.5 790.5Q958 767 958 735V0H770V646Q770 723 764.0 788.5Q758 854 739 891Q719 931 682.0 950.0Q645 969 582 969Q521 969 454.0 931.0Q387 893 324 834V0H136V1117H324V993Q398 1067 470.5 1107.5Q543 1148 630 1148Q729 1148 805.5 1103.0Q882 1058 922 955Q1007 1050 1088.0 1099.0Q1169 1148 1264 1148Q1336 1148 1395.0 1125.5Q1454 1103 1498 1053Q1543 1002 1567.5 926.0Q1592 850 1592 735V0Z" transform="matrix(0.008789, 0, 0.001868, -0.008789, 166.22, 0)"/>
    <path d="M1073 588Q1073 309 939.5 143.5Q806 -22 602 -22Q519 -22 455.0 -3.0Q391 16 324 56V-412H136V1117H324V1000Q394 1063 479.5 1105.5Q565 1148 666 1148Q858 1148 965.5 996.0Q1073 844 1073 588ZM879 567Q879 758 818.0 863.5Q757 969 620 969Q540 969 465.5 933.5Q391 898 324 842V209Q398 173 450.5 160.0Q503 147 571 147Q717 147 798.0 254.0Q879 361 879 567Z" transform="matrix(0.008789, 0, 0.001868, -0.008789, 181.34, 0)"/>
    <path d="M760 275V585Q693 579 590.5 568.5Q488 558 425 539Q350 516 301.0 468.5Q252 421 252 336Q252 240 306.0 191.0Q360 142 464 142Q553 142 625.0 180.5Q697 219 760 275ZM760 119Q737 102 698.5 71.5Q660 41 624 23Q574 -3 527.5 -17.0Q481 -31 397 -31Q328 -31 266.0 -5.0Q204 21 157 68Q112 114 85.0 181.5Q58 249 58 324Q58 440 107.0 521.5Q156 603 262 651Q356 694 484.0 710.5Q612 727 760 735V771Q760 837 740.0 877.5Q720 918 684 940Q648 963 596.0 970.5Q544 978 489 978Q424 978 336.0 958.5Q248 939 160 902H149V1093Q201 1108 298.0 1126.0Q395 1144 490 1144Q605 1144 684.0 1126.0Q763 1108 826 1061Q887 1015 917.0 942.0Q947 869 947 764V0H760Z" transform="matrix(0.008789, 0, 0.001868, -0.008789, 191.29, 0)"/>
    <path d="M1014 0H826V636Q826 713 818.5 779.5Q811 846 790 886Q767 928 726.0 948.5Q685 969 614 969Q544 969 469.5 931.5Q395 894 324 834V0H136V1117H324V993Q408 1068 490.0 1108.0Q572 1148 663 1148Q828 1148 921.0 1039.5Q1014 931 1014 725Z" transform="matrix(0.008789, 0, 0.001868, -0.008789, 200.73, 0)"/>
    <path d="M1014 1117 413 -412H212L412 54L6 1117H209L514 290L818 1117Z" transform="matrix(0.008789, 0, 0.001868, -0.008789, 210.77, 0)"/>
  </g>
</svg>
