<?xml version="1.0" encoding="UTF-8"?>
<svg xmlns="http://www.w3.org/2000/svg" viewBox="0 0 580 60" width="580" height="60">
  <!-- "An Aviation Audio Company" in Tahoma with synthetic italic (paths) -->
  <g fill="#000000" transform="translate(62, 37)">
    <path d="M-10 0 492 1489H736L1238 0H1029L894 416H325L190 0ZM839 585 609 1287 380 585Z" transform="matrix(0.008789, 0, 0.001868, -0.008789, 0.00, 0)"/>
    <path d="M1014 0H826V636Q826 713 818.5 779.5Q811 846 790 886Q767 928 726.0 948.5Q685 969 614 969Q544 969 469.5 931.5Q395 894 324 834V0H136V1117H324V993Q408 1068 490.0 1108.0Q572 1148 663 1148Q828 1148 921.0 1039.5Q1014 931 1014 725Z" transform="matrix(0.008789, 0, 0.001868, -0.008789, 10.79, 0)"/>
    <path d="M-10 0 492 1489H736L1238 0H1029L894 416H325L190 0ZM839 585 609 1287 380 585Z" transform="matrix(0.008789, 0, 0.001868, -0.008789, 26.46, 0)"/>
    <path d="M1014 1117 593 0H424L6 1117H209L515 255L818 1117Z" transform="matrix(0.008789, 0, 0.001868, -0.008789, 37.25, 0)"/>
    <path d="M328 0H140V1117H328ZM341 1304H127V1499H341Z" transform="matrix(0.008789, 0, 0.001868, -0.008789, 46.21, 0)"/>
    <path d="M760 275V585Q693 579 590.5 568.5Q488 558 425 539Q350 516 301.0 468.5Q252 421 252 336Q252 240 306.0 191.0Q360 142 464 142Q553 142 625.0 180.5Q697 219 760 275ZM760 119Q737 102 698.5 71.5Q660 41 624 23Q574 -3 527.5 -17.0Q481 -31 397 -31Q328 -31 266.0 -5.0Q204 21 157 68Q112 114 85.0 181.5Q58 249 58 324Q58 440 107.0 521.5Q156 603 262 651Q356 694 484.0 710.5Q612 727 760 735V771Q760 837 740.0 877.5Q720 918 684 940Q648 963 596.0 970.5Q544 978 489 978Q424 978 336.0 958.5Q248 939 160 902H149V1093Q201 1108 298.0 1126.0Q395 1144 490 1144Q605 1144 684.0 1126.0Q763 1108 826 1061Q887 1015 917.0 942.0Q947 869 947 764V0H760Z" transform="matrix(0.008789, 0, 0.001868, -0.008789, 50.33, 0)"/>
    <path d="M474 -22Q320 -22 234.0 65.5Q148 153 148 342V961H21V1117H148V1438H336V1117H682V961H336V430Q336 345 339.0 299.0Q342 253 362 213Q379 178 417.0 160.5Q455 143 520 143Q566 143 609.0 156.5Q652 170 671 179H682V10Q629 -5 574.5 -13.5Q520 -22 474 -22Z" transform="matrix(0.008789, 0, 0.001868, -0.008789, 59.77, 0)"/>
    <path d="M328 0H140V1117H328ZM341 1304H127V1499H341Z" transform="matrix(0.008789, 0, 0.001868, -0.008789, 65.79, 0)"/>
    <path d="M1055 558Q1055 276 919.0 122.5Q783 -31 557 -31Q324 -31 190.5 127.5Q57 286 57 558Q57 838 194.5 993.0Q332 1148 557 1148Q783 1148 919.0 993.5Q1055 839 1055 558ZM861 558Q861 775 782.0 880.5Q703 986 557 986Q410 986 330.5 880.5Q251 775 251 558Q251 348 330.5 239.5Q410 131 557 131Q702 131 781.5 237.5Q861 344 861 558Z" transform="matrix(0.008789, 0, 0.001868, -0.008789, 69.91, 0)"/>
    <path d="M1014 0H826V636Q826 713 818.5 779.5Q811 846 790 886Q767 928 726.0 948.5Q685 969 614 969Q544 969 469.5 931.5Q395 894 324 834V0H136V1117H324V993Q408 1068 490.0 1108.0Q572 1148 663 1148Q828 1148 921.0 1039.5Q1014 931 1014 725Z" transform="matrix(0.008789, 0, 0.001868, -0.008789, 79.68, 0)"/>
    <path d="M-10 0 492 1489H736L1238 0H1029L894 416H325L190 0ZM839 585 609 1287 380 585Z" transform="matrix(0.008789, 0, 0.001868, -0.008789, 95.34, 0)"/>
    <path d="M1006 0H818V124Q731 48 653.0 8.5Q575 -31 479 -31Q406 -31 341.5 -7.0Q277 17 229 69Q181 121 154.5 200.0Q128 279 128 392V1117H316V481Q316 392 322.5 333.5Q329 275 352 231Q375 188 414.5 168.0Q454 148 528 148Q597 148 675.0 187.0Q753 226 818 283V1117H1006Z" transform="matrix(0.008789, 0, 0.001868, -0.008789, 106.14, 0)"/>
    <path d="M996 0H808V114Q764 77 732.0 53.0Q700 29 657 9Q617 -10 574.0 -20.5Q531 -31 474 -31Q383 -31 305.5 7.0Q228 45 174 118Q119 192 89.0 300.5Q59 409 59 550Q59 697 97.0 804.5Q135 912 202 992Q263 1065 349.5 1106.5Q436 1148 531 1148Q615 1148 677.0 1129.5Q739 1111 808 1072V1556H996ZM808 272V916Q738 950 682.5 963.0Q627 976 562 976Q417 976 335.0 867.5Q253 759 253 554Q253 357 316.0 252.5Q379 148 518 148Q592 148 667.0 181.5Q742 215 808 272Z" transform="matrix(0.008789, 0, 0.001868, -0.008789, 116.17, 0)"/>
    <path d="M328 0H140V1117H328ZM341 1304H127V1499H341Z" transform="matrix(0.008789, 0, 0.001868, -0.008789, 126.12, 0)"/>
    <path d="M1055 558Q1055 276 919.0 122.5Q783 -31 557 -31Q324 -31 190.5 127.5Q57 286 57 558Q57 838 194.5 993.0Q332 1148 557 1148Q783 1148 919.0 993.5Q1055 839 1055 558ZM861 558Q861 775 782.0 880.5Q703 986 557 986Q410 986 330.5 880.5Q251 775 251 558Q251 348 330.5 239.5Q410 131 557 131Q702 131 781.5 237.5Q861 344 861 558Z" transform="matrix(0.008789, 0, 0.001868, -0.008789, 130.24, 0)"/>
    <path d="M733 -27Q587 -27 464.5 22.0Q342 71 253 168Q164 265 115.0 410.0Q66 555 66 743Q66 930 113.5 1069.0Q161 1208 252 1311Q341 1411 463.0 1463.5Q585 1516 736 1516Q811 1516 876.5 1505.0Q942 1494 998 1477Q1046 1462 1096.5 1439.5Q1147 1417 1196 1390V1151H1180Q1154 1175 1113.0 1209.0Q1072 1243 1013 1276Q956 1307 889.0 1327.0Q822 1347 734 1347Q639 1347 554.0 1308.0Q469 1269 405 1193Q342 1117 307.0 1002.0Q272 887 272 743Q272 590 309.0 479.5Q346 369 410 293Q472 219 556.0 181.5Q640 144 734 144Q820 144 893.0 165.0Q966 186 1023 218Q1078 249 1118.0 281.5Q1158 314 1181 337H1196V101Q1147 78 1103.5 57.0Q1060 36 998 16Q933 -5 877.5 -16.0Q822 -27 733 -27Z" transform="matrix(0.008789, 0, 0.001868, -0.008789, 145.63, 0)"/>
    <path d="M1055 558Q1055 276 919.0 122.5Q783 -31 557 -31Q324 -31 190.5 127.5Q57 286 57 558Q57 838 194.5 993.0Q332 1148 557 1148Q783 1148 919.0 993.5Q1055 839 1055 558ZM861 558Q861 775 782.0 880.5Q703 986 557 986Q410 986 330.5 880.5Q251 775 251 558Q251 348 330.5 239.5Q410 131 557 131Q702 131 781.5 237.5Q861 344 861 558Z" transform="matrix(0.008789, 0, 0.001868, -0.008789, 156.45, 0)"/>
    <path d="M1404 0V646Q1404 723 1398.0 788.5Q1392 854 1373 891Q1353 931 1316.0 950.0Q1279 969 1216 969Q1158 969 1091.5 933.5Q1025 898 954 831Q955 814 956.5 790.5Q958 767 958 735V0H770V646Q770 723 764.0 788.5Q758 854 739 891Q719 931 682.0 950.0Q645 969 582 969Q521 969 454.0 931.0Q387 893 324 834V0H136V1117H324V993Q398 1067 470.5 1107.5Q543 1148 630 1148Q729 1148 805.5 1103.0Q882 1058 922 955Q1007 1050 1088.0 1099.0Q1169 1148 1264 1148Q1336 1148 1395.0 1125.5Q1454 1103 1498 1053Q1543 1002 1567.5 926.0Q1592 850 1592 735V0Z" transform="matrix(0.008789, 0, 0.001868, -0.008789, 166.22, 0)"/>
    <path d="M1073 588Q1073 309 939.5 143.5Q806 -22 602 -22Q519 -22 455.0 -3.0Q391 16 324 56V-412H136V1117H324V1000Q394 1063 479.5 1105.5Q565 1148 666 1148Q858 1148 965.5 996.0Q1073 844 1073 588ZM879 567Q879 758 818.0 863.5Q757 969 620 969Q540 969 465.5 933.5Q391 898 324 842V209Q398 173 450.5 160.0Q503 147 571 147Q717 147 798.0 254.0Q879 361 879 567Z" transform="matrix(0.008789, 0, 0.001868, -0.008789, 181.34, 0)"/>
    <path d="M760 275V585Q693 579 590.5 568.5Q488 558 425 539Q350 516 301.0 468.5Q252 421 252 336Q252 240 306.0 191.0Q360 142 464 142Q553 142 625.0 180.5Q697 219 760 275ZM760 119Q737 102 698.5 71.5Q660 41 624 23Q574 -3 527.5 -17.0Q481 -31 397 -31Q328 -31 266.0 -5.0Q204 21 157 68Q112 114 85.0 181.5Q58 249 58 324Q58 440 107.0 521.5Q156 603 262 651Q356 694 484.0 710.5Q612 727 760 735V771Q760 837 740.0 877.5Q720 918 684 940Q648 963 596.0 970.5Q544 978 489 978Q424 978 336.0 958.5Q248 939 160 902H149V1093Q201 1108 298.0 1126.0Q395 1144 490 1144Q605 1144 684.0 1126.0Q763 1108 826 1061Q887 1015 917.0 942.0Q947 869 947 764V0H760Z" transform="matrix(0.008789, 0, 0.001868, -0.008789, 191.29, 0)"/>
    <path d="M1014 0H826V636Q826 713 818.5 779.5Q811 846 790 886Q767 928 726.0 948.5Q685 969 614 969Q544 969 469.5 931.5Q395 894 324 834V0H136V1117H324V993Q408 1068 490.0 1108.0Q572 1148 663 1148Q828 1148 921.0 1039.5Q1014 931 1014 725Z" transform="matrix(0.008789, 0, 0.001868, -0.008789, 200.73, 0)"/>
    <path d="M1014 1117 413 -412H212L412 54L6 1117H209L514 290L818 1117Z" transform="matrix(0.008789, 0, 0.001868, -0.008789, 210.77, 0)"/>
  </g>
</svg>
